<svg id="Calque_1" data-name="Calque 1" xmlns="http://www.w3.org/2000/svg" xmlns:xlink="http://www.w3.org/1999/xlink" viewBox="0 0 1078.5 957"><defs><style>.cls-1{fill:url(#Dégradé_sans_nom_3);}.cls-2{opacity:0.27;}.cls-3{fill:#fff;}.cls-4{opacity:0.2;}.cls-5{fill:#f4f41e;}.cls-6{fill:#ffe76e;}.cls-7{fill:red;}.cls-8{fill:#ed7a7a;}</style><linearGradient id="Dégradé_sans_nom_3" y1="479" x2="1073.5" y2="479" gradientUnits="userSpaceOnUse"><stop offset="0" stop-color="#1b1464"/><stop offset="1" stop-color="#0042ff"/></linearGradient></defs><title>Home_anim</title><path class="cls-1" d="M566,159H895.79L1073.5.5,0,1V7Q.26,482.25.5,957.5L870,182H566Z" transform="translate(5 -0.5)"/><g id="Barre"><rect class="cls-2" y="601.5" width="297" height="23"/><rect class="cls-3" x="5" y="595.5" width="297" height="23"/></g><g id="Barre-2" data-name="Barre"><polygon class="cls-2" points="888.52 164.5 888.52 169.59 868.38 187.5 563 187.5 563 164.5 888.52 164.5"/><rect class="cls-3" x="568.48" y="158.5" width="325.52" height="23"/></g><polygon class="cls-4" points="362 432.5 520 432.5 520 274.5 362 432.5"/><polygon class="cls-5" points="516 270.5 516 428.5 358 428.5 516 270.5"/><polygon class="cls-6" points="516 270.5 516 327.01 358.22 428.5 358 428.5 516 270.5"/><path class="cls-7" d="M884,57a48,48,0,0,1-40.08,47.35A49.21,49.21,0,0,1,836,105a48,48,0,0,1,0-96l1.36,0A47.95,47.95,0,0,1,884,57Z" transform="translate(5 -0.5)"/><path class="cls-8" d="M884,57a48,48,0,0,1-40.08,47.35c55.19-43.2,12-82-6.56-95.33A47.95,47.95,0,0,1,884,57Z" transform="translate(5 -0.5)"/></svg>